<svg version="1.1" id="Layer_1" xmlns="http://www.w3.org/2000/svg" xmlns:xlink="http://www.w3.org/1999/xlink" x="0px" y="0px"
	 width="100%" viewBox="0 0 100 100" enable-background="new 0 0 100 100" xml:space="preserve">
<path fill="#FA5252" opacity="1.000000" stroke="none" 
	d="
M58.000000,101.000000 
	C57.250000,101.000000 56.500000,101.000000 55.375374,100.535751 
	C55.000751,94.538231 55.000751,89.004967 55.000751,82.973480 
	C41.543083,82.973480 27.483904,82.973480 13.270050,82.973480 
	C13.270050,62.129047 13.270050,41.763729 13.270050,21.279596 
	C38.566643,21.279596 63.593197,21.279596 88.706696,21.279596 
	C88.706696,41.928997 88.706696,62.297516 88.706696,81.875092 
	C83.592522,83.089287 78.341553,83.192665 74.435883,85.537148 
	C68.885269,88.869057 64.288437,93.808990 59.378681,98.168411 
	C58.653088,98.812660 58.446636,100.041580 58.000000,101.000000 
M52.406799,58.999992 
	C49.021683,58.999992 45.636570,58.999992 41.573708,58.999992 
	C44.153496,63.860012 46.934666,66.517967 52.095577,66.053314 
	C56.427834,65.663277 58.334034,62.975864 60.238995,58.999992 
	C57.549839,58.999992 55.448444,58.999992 52.406799,58.999992 
M37.423222,49.986412 
	C41.578781,50.032986 42.242008,47.360748 41.982868,44.049305 
	C41.743839,40.994907 39.884354,39.978806 36.996010,39.980042 
	C34.106148,39.981281 32.254780,41.002201 32.016026,44.056946 
	C31.756498,47.377464 32.445381,50.029339 37.423222,49.986412 
M69.940918,47.080383 
	C69.959930,46.424068 69.966835,45.767139 69.999908,45.111534 
	C70.213676,40.874233 67.779839,39.723488 64.086090,40.013515 
	C60.268421,40.313271 59.581562,42.951572 60.110794,45.935432 
	C60.357307,47.325325 61.747463,49.613716 62.568409,49.591785 
	C64.935158,49.528584 67.276062,48.497334 69.940918,47.080383 
z"/>
<path fill="#000000" opacity="1.000000" stroke="none" 
	d="
M58.468658,101.000000 
	C58.446636,100.041580 58.653088,98.812660 59.378681,98.168411 
	C64.288437,93.808990 68.885269,88.869057 74.435883,85.537148 
	C78.341553,83.192665 83.592522,83.089287 88.706696,81.875092 
	C88.706696,62.297516 88.706696,41.928997 88.706696,21.279596 
	C63.593197,21.279596 38.566643,21.279596 13.270050,21.279596 
	C13.270050,41.763729 13.270050,62.129047 13.270050,82.973480 
	C27.483904,82.973480 41.543083,82.973480 55.000751,82.973480 
	C55.000751,89.004967 55.000751,94.538231 55.000374,100.535751 
	C37.085098,101.000000 19.170198,101.000000 1.000000,101.000000 
	C1.000000,88.313576 1.000000,75.625450 1.334928,62.167809 
	C3.858127,62.104515 6.046398,62.810726 9.000157,63.763985 
	C9.000157,57.455662 9.000931,52.224979 8.999976,46.994297 
	C8.998520,39.009113 8.998013,39.009113 1.000000,39.000000 
	C1.000000,26.400476 1.000000,13.800954 1.000000,1.000000 
	C15.686948,1.000000 30.374815,1.000000 45.827847,1.338510 
	C42.120716,6.983878 47.435009,11.664803 47.237915,16.729305 
	C49.966305,16.729305 52.370018,16.729305 56.000000,16.729305 
	C56.000000,11.295910 56.000000,6.147955 56.000000,1.000000 
	C70.920494,1.000000 85.840981,1.000000 101.000000,1.000000 
	C101.000000,13.353206 101.000000,25.707945 100.575996,38.531792 
	C97.077339,39.038437 93.288300,38.321236 93.084709,42.917576 
	C92.794594,49.467129 93.010933,56.039116 93.010933,63.265781 
	C96.027199,62.787888 98.513596,62.393940 101.000000,62.000000 
	C101.000000,74.930244 101.000000,87.860489 101.000000,101.000000 
	C86.979797,101.000000 72.958557,101.000000 58.468658,101.000000 
z"/>
<path fill="#FA5252" opacity="1.000000" stroke="none" 
	d="
M1.000000,39.468624 
	C8.998013,39.009113 8.998520,39.009113 8.999976,46.994297 
	C9.000931,52.224979 9.000157,57.455662 9.000157,63.763985 
	C6.046398,62.810726 3.858127,62.104515 1.334928,61.699150 
	C1.000000,54.645748 1.000000,47.291500 1.000000,39.468624 
z"/>
<path fill="#FA5252" opacity="1.000000" stroke="none" 
	d="
M101.000000,61.531372 
	C98.513596,62.393940 96.027199,62.787888 93.010933,63.265781 
	C93.010933,56.039116 92.794594,49.467129 93.084709,42.917576 
	C93.288300,38.321236 97.077339,39.038437 100.575996,39.000450 
	C101.000000,46.354252 101.000000,53.708500 101.000000,61.531372 
z"/>
<path fill="#FA5252" opacity="1.000000" stroke="none" 
	d="
M55.545891,1.000000 
	C56.000000,6.147955 56.000000,11.295910 56.000000,16.729305 
	C52.370018,16.729305 49.966305,16.729305 47.237915,16.729305 
	C47.435009,11.664803 42.120716,6.983878 46.296505,1.338510 
	C49.030594,1.000000 52.061188,1.000000 55.545891,1.000000 
z"/>
<path fill="#000000" opacity="1.000000" stroke="none" 
	d="
M52.876923,58.999992 
	C55.448444,58.999992 57.549839,58.999992 60.238995,58.999992 
	C58.334034,62.975864 56.427834,65.663277 52.095577,66.053314 
	C46.934666,66.517967 44.153496,63.860012 41.573708,58.999992 
	C45.636570,58.999992 49.021683,58.999992 52.876923,58.999992 
z"/>
<path fill="#000000" opacity="1.000000" stroke="none" 
	d="
M37.003632,49.990753 
	C32.445381,50.029339 31.756498,47.377464 32.016026,44.056946 
	C32.254780,41.002201 34.106148,39.981281 36.996010,39.980042 
	C39.884354,39.978806 41.743839,40.994907 41.982868,44.049305 
	C42.242008,47.360748 41.578781,50.032986 37.003632,49.990753 
z"/>
<path fill="#000000" opacity="1.000000" stroke="none" 
	d="
M69.784012,47.463341 
	C67.276062,48.497334 64.935158,49.528584 62.568409,49.591785 
	C61.747463,49.613716 60.357307,47.325325 60.110794,45.935432 
	C59.581562,42.951572 60.268421,40.313271 64.086090,40.013515 
	C67.779839,39.723488 70.213676,40.874233 69.999908,45.111534 
	C69.966835,45.767139 69.959930,46.424068 69.784012,47.463341 
z"/>
</svg>